# xmcd CD database file
#
# Track frame offsets:
#	150
#	20747
#	45046
#	65000
#
# Disc length: 1101 seconds
#
# Revision: 1
# Processed by: cddbd v1.5.1PL2 Copyright (c) Steve Scherf et al.
# Submitted via: CDex 1.60beta1-cs1
#
DISCID=2b044b04
DTITLE=奥 華子 - vol.4
DYEAR=2005
DGENRE=JPop
TTITLE0=笑って笑って
TTITLE1=楔 -くさび-
TTITLE2=自由のカメ
TTITLE3=愛のしずく
EXTD=YEAR: 2005
EXTT0=
EXTT1=
EXTT2=
EXTT3=
PLAYORDER=
